<svg xmlns="http://www.w3.org/2000/svg" viewBox="0 0 480 560">
<defs>
  <linearGradient id="g1" x1="0" y1="0" x2="1" y2="1">
    <stop offset="0" stop-color="#2f3036"/>
    <stop offset="1" stop-color="#242429"/>
  </linearGradient>
</defs>
<rect width="480" height="560" rx="28" fill="url(#g1)"/>

<!-- composición abstracta: bloques y nodos conectados, sin texto ni datos inventados -->
<g opacity="0.9">
  <rect x="70" y="90" width="140" height="140" rx="24" fill="#4fd6c4" opacity="0.16"/>
  <rect x="90" y="110" width="100" height="100" rx="18" fill="#4fd6c4" opacity="0.35"/>
  <rect x="270" y="70" width="150" height="90" rx="18" fill="#ffffff" opacity="0.06"/>
  <rect x="270" y="180" width="150" height="60" rx="14" fill="#f4b740" opacity="0.25"/>
</g>

<g stroke="#ffffff33" stroke-width="2" fill="none">
  <path d="M210 160 L270 115"/>
  <path d="M210 190 L270 210"/>
  <path d="M140 230 L140 330"/>
</g>

<circle cx="140" cy="360" r="46" fill="none" stroke="#4fd6c4" stroke-width="3" opacity="0.6"/>
<circle cx="140" cy="360" r="20" fill="#4fd6c4"/>

<g opacity="0.85">
  <rect x="230" y="320" width="180" height="150" rx="20" fill="#ffffff0d" stroke="#ffffff22"/>
  <rect x="254" y="350" width="60" height="10" rx="5" fill="#4fd6c4"/>
  <rect x="254" y="374" width="132" height="8" rx="4" fill="#ffffff26"/>
  <rect x="254" y="392" width="100" height="8" rx="4" fill="#ffffff26"/>
  <rect x="254" y="410" width="120" height="8" rx="4" fill="#ffffff26"/>
  <rect x="254" y="436" width="70" height="20" rx="10" fill="#4fd6c4"/>
</g>

<g stroke="#ffffff22" stroke-width="2" fill="none">
  <path d="M60 470 Q 240 520 420 460"/>
</g>
</svg>